<svg xmlns="http://www.w3.org/2000/svg" viewBox="0 0 512.001 512.001" width="512" height="512"><path d="M462.668 170.099c-6.38-31.89-18.521-60.495-36.085-85.018a8.857 8.857 0 0 0-12.36-2.044 8.858 8.858 0 0 0-2.043 12.36c16.09 22.466 27.233 48.77 33.116 78.178 3.591 17.947 5.412 36.41 5.412 54.877 0 60.876-19.303 118.681-55.821 167.167-34.788 46.188-84.031 81-138.887 98.251-54.856-17.25-104.099-52.063-138.887-98.251-36.518-48.487-55.821-106.292-55.821-167.167 0-18.471 1.82-36.934 5.411-54.878 14.425-72.091 61.338-125.54 128.714-146.642 68.752-21.533 145.352-4.47 195.156 43.466a8.855 8.855 0 0 0 12.524-.24 8.856 8.856 0 0 0-.239-12.524C375.539 31.34 340.776 13.103 302.327 4.892c-37.271-7.957-76.069-6.183-112.207 5.134-73.741 23.096-125.058 81.44-140.79 160.073-3.817 19.085-5.754 38.718-5.754 58.354 0 64.751 20.536 126.243 59.386 177.826 37.573 49.886 91.01 87.296 150.466 105.34a8.868 8.868 0 0 0 5.144 0c59.457-18.042 112.893-55.454 150.466-105.34 38.851-51.582 59.386-113.074 59.386-177.826 0-19.633-1.937-39.265-5.756-58.354z" fill="#fb9972"/><path d="M255.999 88.252c-63.928 0-115.938 52.01-115.938 115.938 0 23.232 6.849 45.65 19.806 64.828 2.738 4.054 8.243 5.119 12.299 2.381a8.858 8.858 0 0 0 2.382-12.299c-10.971-16.239-16.769-35.227-16.769-54.911 0-54.159 44.062-98.221 98.221-98.221 54.158 0 98.22 44.062 98.22 98.221s-44.062 98.22-98.221 98.22c-19.981 0-39.207-5.961-55.6-17.239a8.859 8.859 0 0 0-10.042 14.596c19.361 13.32 42.059 20.361 65.642 20.361 63.928 0 115.937-52.01 115.937-115.938S319.927 88.252 255.999 88.252z" fill="#fb9972"/></svg>