<svg xmlns="http://www.w3.org/2000/svg" viewBox="0 0 512.001 512.001" width="512" height="512"><g fill="#fb9972"><path d="M392.139 495.832H21.02a4.856 4.856 0 0 1-4.85-4.85v-75.135a8.085 8.085 0 0 0-8.085-8.085A8.085 8.085 0 0 0 0 415.847v75.135C0 502.571 9.429 512 21.019 512h371.118c4.465 0 8.085-3.619 8.085-8.085s-3.618-8.083-8.083-8.083z"/><path d="M493.128 57.504a21.135 21.135 0 0 0-2.146-.108h-24.198V23.959C466.784 10.749 456.036 0 442.825 0c-13.212 0-23.96 10.749-23.96 23.959v33.436h-16.372V23.959c0-13.21-10.749-23.959-23.96-23.959s-23.959 10.749-23.959 23.959v33.436h-26.389c-4.465 0-8.085 3.619-8.085 8.085s3.618 8.085 8.085 8.085h26.389v33.436c0 5.076 1.591 9.784 4.295 13.663 4.333 6.218 11.531 10.298 19.667 10.298 13.213 0 23.962-10.749 23.962-23.961V73.564h16.363V107c0 13.212 10.748 23.961 23.961 23.961 5.368 0 10.33-1.775 14.329-4.767 5.845-4.373 9.635-11.349 9.635-19.193V73.564h24.198a4.857 4.857 0 0 1 4.85 4.851v73.253H16.169V78.415a4.857 4.857 0 0 1 4.85-4.851h24.198V107c0 4.954 1.512 9.562 4.098 13.387 4.31 6.375 11.606 10.575 19.864 10.575 13.213 0 23.962-10.749 23.962-23.961V73.564h16.362V107c0 13.212 10.748 23.961 23.961 23.961 11.562 0 21.237-8.23 23.475-19.139l.004-.021c.317-1.552.484-3.157.484-4.801V73.564h136.264c4.465 0 8.085-3.619 8.085-8.085s-3.618-8.085-8.085-8.085H157.427V23.958C157.427 10.749 146.68 0 133.469 0s-23.96 10.749-23.96 23.959v33.436H93.137V23.959C93.137 10.749 82.389 0 69.177 0 55.966 0 45.218 10.749 45.218 23.959v33.436H21.02c-.591 0-1.13.021-1.64.068-.084.006-.156.02-.239.026-.219.02-.435.046-.652.072-.218.026-.448.04-.659.073-.212.031-.435.087-.653.127-.218.041-.435.08-.65.127-.112.025-.22.037-.332.064a21.043 21.043 0 0 0-2.848.884c-.073.027-.146.057-.22.087-.085.035-.159.073-.243.108-.045.019-.088.041-.133.06-.602.261-1.166.534-1.7.821l-.066.035c-.139.075-.288.146-.425.224-.045.025-.089.052-.134.079-.386.23-.754.462-1.124.708-.414.275-.814.567-1.209.876-.149.116-.29.246-.436.366l-.001.001a20.062 20.062 0 0 0-3.73 3.976 24.026 24.026 0 0 0-.831 1.233c-.214.34-.411.7-.605 1.065l.001.002-.149.282c-.042.078-.084.156-.124.237a22.42 22.42 0 0 0-.618 1.335 24.03 24.03 0 0 0-.631 1.768l-.018.063-.009.031c-.143.455-.266.923-.37 1.353-.031.124-.049.255-.077.381-.04.184-.076.368-.111.554-.036.19-.081.375-.114.565-.009.044-.015.087-.022.13-.036.235-.052.481-.08.718-.025.21-.051.42-.07.632-.007.08-.02.154-.026.234-.045.508-.068 1.04-.068 1.623v299.376a8.084 8.084 0 0 0 8.085 8.085 8.084 8.084 0 0 0 8.085-8.085V167.836h479.663v323.145a4.856 4.856 0 0 1-4.85 4.85H433.82c-4.465 0-8.085 3.618-8.085 8.085s3.619 8.085 8.085 8.085h57.163c11.59 0 21.019-9.429 21.019-21.019V78.413c-.001-10.865-8.288-19.831-18.874-20.909zM386.325 65.48v41.521c0 4.295-3.495 7.791-7.792 7.791a7.757 7.757 0 0 1-4.952-1.781 7.78 7.78 0 0 1-2.837-6.01V65.479l-.002-.04v-41.48c0-4.296 3.495-7.791 7.791-7.791s7.792 3.494 7.792 7.791V65.48zm64.291-.02l-.001.02v41.521c0 2.149-.874 4.096-2.284 5.506s-3.358 2.283-5.505 2.283c-4.028 0-7.351-3.073-7.751-6.995a7.756 7.756 0 0 1-.04-.796v-83.04h-.002c0-4.296 3.495-7.791 7.792-7.791 4.296 0 7.791 3.494 7.791 7.791V65.46zm-324.939.019v-41.52c0-4.296 3.495-7.791 7.792-7.791 4.295 0 7.79 3.494 7.79 7.791v83.042c0 4.295-3.494 7.791-7.79 7.791s-7.792-3.495-7.792-7.791V65.479zm-64.29-41.52c-.001-4.296 3.494-7.791 7.79-7.791s7.792 3.494 7.792 7.791v83.042c0 4.295-3.495 7.791-7.792 7.791a7.765 7.765 0 0 1-5.505-2.284 7.764 7.764 0 0 1-2.283-5.506V65.479l-.001-.021V23.959z"/><path d="M117.942 272.571c11.381 0 20.641-9.259 20.641-20.642v-39.465c0-11.382-9.259-20.642-20.641-20.642H78.475c-11.381 0-20.642 9.259-20.642 20.642v39.465c-.001 11.382 9.26 20.642 20.642 20.642h39.467zm-43.94-20.641v-39.465a4.477 4.477 0 0 1 4.473-4.473h39.466a4.477 4.477 0 0 1 4.472 4.473v39.465a4.477 4.477 0 0 1-4.472 4.473H78.475a4.479 4.479 0 0 1-4.473-4.473zm110.294 20.641h39.466c11.382 0 20.643-9.259 20.643-20.642v-39.465c0-11.382-9.26-20.642-20.643-20.642h-39.466c-11.381 0-20.641 9.259-20.641 20.642v39.465c0 11.383 9.259 20.642 20.641 20.642zm-4.473-60.107a4.477 4.477 0 0 1 4.472-4.473h39.466a4.478 4.478 0 0 1 4.474 4.473v39.465a4.478 4.478 0 0 1-4.474 4.473h-39.466a4.477 4.477 0 0 1-4.472-4.473v-39.465zm110.294 60.107h39.466c11.382 0 20.642-9.259 20.642-20.642v-39.465c0-11.382-9.259-20.642-20.642-20.642h-39.466c-11.382 0-20.642 9.259-20.642 20.642v39.465c0 11.383 9.261 20.642 20.642 20.642zm-4.473-60.107a4.477 4.477 0 0 1 4.473-4.473h39.466a4.478 4.478 0 0 1 4.473 4.473v39.465a4.478 4.478 0 0 1-4.473 4.473h-39.466a4.477 4.477 0 0 1-4.473-4.473v-39.465zm149.761-20.641h-39.466c-11.381 0-20.641 9.259-20.641 20.642v39.465c0 11.382 9.259 20.642 20.641 20.642h39.466c11.382 0 20.642-9.259 20.642-20.642v-39.465c-.001-11.383-9.26-20.642-20.642-20.642zm4.474 60.107a4.479 4.479 0 0 1-4.474 4.473h-39.466a4.477 4.477 0 0 1-4.473-4.473v-39.465a4.477 4.477 0 0 1 4.473-4.473h39.466a4.479 4.479 0 0 1 4.474 4.473v39.465zM57.834 349.255c-.001 11.382 9.259 20.642 20.641 20.642h39.466c11.381 0 20.641-9.259 20.641-20.642V309.79c0-11.382-9.259-20.642-20.641-20.642H78.475c-11.381 0-20.642 9.259-20.642 20.642v39.465zm16.168-39.466a4.478 4.478 0 0 1 4.473-4.473h39.466a4.478 4.478 0 0 1 4.472 4.473v39.465a4.478 4.478 0 0 1-4.472 4.474H78.475a4.478 4.478 0 0 1-4.473-4.474v-39.465zm89.653 39.466c0 11.382 9.26 20.642 20.641 20.642h39.466c11.382 0 20.643-9.259 20.643-20.642V309.79c0-11.382-9.26-20.642-20.643-20.642h-39.466c-11.381 0-20.641 9.259-20.641 20.642v39.465zm16.168-39.466a4.478 4.478 0 0 1 4.472-4.473h39.466a4.479 4.479 0 0 1 4.474 4.473v39.465a4.479 4.479 0 0 1-4.474 4.474h-39.466a4.478 4.478 0 0 1-4.472-4.474v-39.465zm89.652 39.466c0 11.382 9.259 20.642 20.642 20.642h39.466c11.382 0 20.642-9.259 20.642-20.642V309.79c0-11.382-9.259-20.642-20.642-20.642h-39.466c-11.382 0-20.642 9.259-20.642 20.642v39.465zm16.169-39.466a4.478 4.478 0 0 1 4.473-4.473h39.466a4.479 4.479 0 0 1 4.473 4.473v39.465a4.479 4.479 0 0 1-4.473 4.474h-39.466a4.478 4.478 0 0 1-4.473-4.474v-39.465zm170.402 0c0-11.382-9.259-20.642-20.642-20.642h-39.466c-11.381 0-20.641 9.259-20.641 20.642v39.465c0 11.382 9.259 20.642 20.641 20.642h39.466c11.382 0 20.642-9.259 20.642-20.642v-39.465zm-16.167 39.466a4.48 4.48 0 0 1-4.474 4.474h-39.466a4.478 4.478 0 0 1-4.473-4.474V309.79a4.478 4.478 0 0 1 4.473-4.473h39.466a4.48 4.48 0 0 1 4.474 4.473v39.465zM78.474 467.221h39.466c11.381 0 20.641-9.259 20.641-20.641v-39.465c0-11.383-9.259-20.643-20.641-20.643H78.475c-11.381 0-20.642 9.259-20.642 20.643v39.465h-.001c.001 11.381 9.261 20.641 20.642 20.641zm-4.472-60.106a4.479 4.479 0 0 1 4.473-4.474h39.466a4.479 4.479 0 0 1 4.472 4.474v39.465a4.477 4.477 0 0 1-4.472 4.472H78.475a4.477 4.477 0 0 1-4.473-4.472v-39.465zm89.653 39.465c0 11.381 9.26 20.641 20.641 20.641h39.466c11.382 0 20.643-9.259 20.643-20.641v-39.465c0-11.383-9.26-20.643-20.643-20.643h-39.466c-11.381 0-20.641 9.259-20.641 20.643v39.465zm16.168-39.465a4.479 4.479 0 0 1 4.472-4.474h39.466a4.48 4.48 0 0 1 4.474 4.474v39.465a4.478 4.478 0 0 1-4.474 4.472h-39.466a4.477 4.477 0 0 1-4.472-4.472v-39.465zm89.652 39.465c0 11.381 9.259 20.641 20.642 20.641h39.466c11.382 0 20.642-9.259 20.642-20.641v-39.465c0-11.383-9.259-20.643-20.642-20.643h-39.466c-11.382 0-20.642 9.259-20.642 20.643v39.465zm16.169-39.465a4.479 4.479 0 0 1 4.473-4.474h39.466a4.48 4.48 0 0 1 4.473 4.474v39.465a4.478 4.478 0 0 1-4.473 4.472h-39.466a4.477 4.477 0 0 1-4.473-4.472v-39.465zm149.761-20.643h-39.466c-11.381 0-20.641 9.259-20.641 20.643v39.465c0 11.381 9.259 20.641 20.641 20.641h39.466c11.382 0 20.642-9.259 20.642-20.641v-39.465c-.001-11.383-9.26-20.643-20.642-20.643zm4.474 60.108a4.479 4.479 0 0 1-4.474 4.472h-39.466a4.477 4.477 0 0 1-4.473-4.472v-39.465a4.479 4.479 0 0 1 4.473-4.474h39.466a4.48 4.48 0 0 1 4.474 4.474v39.465z"/></g></svg>