<?xml version="1.0" encoding="utf-8"?>
<!-- Generator: Adobe Illustrator 21.1.0, SVG Export Plug-In . SVG Version: 6.00 Build 0)  -->
<svg version="1.1" id="Слой_1" xmlns="http://www.w3.org/2000/svg" xmlns:xlink="http://www.w3.org/1999/xlink" x="0px" y="0px"
	 viewBox="0 0 175 175" style="enable-background:new 0 0 175 175;" xml:space="preserve">
<style type="text/css">
	.st0{fill:#FFFFFF;}
	.st1{fill:#FB9972;}
</style>
<g id="Слой_1_1_">
	<g id="Слой_3_1_">
		<path class="st0" d="M91.6,126.9v26h0.1L91.6,126.9C91.7,126.9,91.6,126.9,91.6,126.9z M92.8,158.8v0.1h4.8v-0.1H92.8z
			 M36.5,158.8l0.1,0.1h55v-0.1H36.5z M91.6,152.8v0.1l0,0V152.8z M88,0h-1C69.4,0,53,5.2,39.4,14.2c36.1,6,55,25.2,58.2,56.5v16
			h-5.9v-16c-5.3-33.3-27-48.3-59.6-51.2C12.5,35.5,0,59.8,0,87v1c0,25.8,11.2,48.9,29.1,64.9h62.6v-26h5.9v31.9H36.5l0.1,0.1h-0.1
			c6.7,4.8,14.2,8.6,22.2,11.4c0.7,0.3,1.5,0.5,2.2,0.7c1.2,0.4,2.4,0.7,3.6,1c1.8,0.5,3.5,0.9,5.3,1.3c5.6,1.1,11.3,1.7,17.2,1.7h1
			c48,0,87-39,87-87v-1C175,39,136,0,88,0z M32.4,122h-6.3l3.5-25.4h16.1l-4.7-35h-0.5l-4,30.1h-6.3L35,55.4h11.3l6.4,46.9H35.2
			L32.4,122z M49.1,122L47,107.3h6.4l2,14.7H49.1z M67.1,122h-5.9V81.6h5.9V122z M76,103.4c-0.1,0-0.2,0-0.4,0H72v-5.9h3.6
			c1.6,0,3-1.3,3-2.9V79.7c0-1.6-1.3-3-3-3H61.2v-5.9h14.3c4.6,0,8.4,3.5,8.9,8c0,0.2,0,0.3,0,0.4s0,0.2,0,0.4v15
			c0,4.5-3.5,8.3-8,8.8C76.3,103.4,76.1,103.4,76,103.4z M109.6,122l-7.3-19.7h6.4l7.2,19.7H109.6z M115.9,76.7h-0.4
			c-1.9,0-3.2,1.5-3.2,3.4v7.6c0,3.8-2.8,9.8-8.7,9.8h-6V122h-5.9V91.7h10.7c2.2,0,3.9-1.9,3.9-4.1v-7.4c0-5.1,4.1-9.4,9.2-9.4h0.4
			V76.7z M125.2,122h-6l4.3-22.9h14.7L134,76.6h-0.4l-3.2,17.7h-6l4.4-23.6h10.1l6.5,34.3h-16.9L125.2,122z M142.4,122l-2.2-12.2h6
			l2.3,12.2H142.4z"/>
	</g>
	<g id="Круг_1_">
		<path class="st1" d="M88,0h-1C69.4,0,53,5.2,39.4,14.2c36.1,6,55,25.2,58.2,56.5v16h-5.9v-16c-5.3-33.3-27-48.3-59.6-51.2
			C12.5,35.5,0,59.8,0,87v1c0,25.8,11.2,48.9,29.1,64.9h62.6v-26.1h6v32H36.5l0.1,0.1c6.7,4.8,14.1,8.6,22,11.4
			c0.7,0.3,1.5,0.5,2.2,0.7c1.2,0.4,2.4,0.7,3.6,1c1.8,0.5,3.5,0.9,5.3,1.3c5.6,1.1,11.3,1.7,17.2,1.7h1c48,0,87-39,87-87v-1
			C175,39,136,0,88,0z M32.4,122H26l3.5-25.4h16.1l-4.7-35h-0.5l-4,30.1h-6.3l4.8-36.3h11.3l6.4,46.9H35.2L32.4,122z M49.2,122
			L47,107.3h6.4l2.1,14.7H49.2z M67.1,122h-5.9V81.6h5.9V122z M76.4,103.4c-0.2,0-0.3,0-0.4,0s-0.2,0-0.4,0H72v-5.9h3.6
			c1.6,0,3-1.3,3-2.9V79.7c0-1.6-1.3-3-3-3H61.2v-6h14.3c4.6,0,8.5,3.6,8.9,8.1c0,0.2,0,0.3,0,0.4s0,0.2,0,0.4v15h0.1
			C84.5,99.1,80.9,103,76.4,103.4z M109.6,122l-7.3-19.7h6.4l7.2,19.7H109.6z M115.9,76.7h-0.4c-1.9,0-3.2,1.5-3.2,3.4v7.6
			c0,3.8-2.8,9.8-8.7,9.8h-6V122h-5.9V91.7h10.7c2.2,0,3.9-1.9,3.9-4.1v-7.4c0-5.1,4.1-9.4,9.2-9.4h0.4V76.7z M125.2,122h-6
			l4.3-22.9h14.7L134,76.6h-0.4l-3.2,17.7h-6l4.4-23.6h10.1l6.5,34.3h-16.9L125.2,122z M142.4,122l-2.2-12.2h6l2.3,12.2H142.4z"/>
	</g>
</g>
<g id="Слой_2">
</g>
</svg>
