<svg xmlns="http://www.w3.org/2000/svg" viewBox="0 0 512.002 512.002" width="512" height="512"><path d="M502.76 78.63H9.24A9.24 9.24 0 0 0 0 87.87v336.262a9.24 9.24 0 0 0 9.24 9.24h389.099a9.24 9.24 0 0 0 9.24-9.24 9.24 9.24 0 0 0-9.24-9.24H33.864l167.768-146.614 48.287 42.199A9.22 9.22 0 0 0 256 312.76c2.17 0 4.339-.76 6.081-2.283l48.291-42.203 167.772 146.617h-44.693a9.24 9.24 0 0 0-9.24 9.24 9.24 9.24 0 0 0 9.24 9.24h69.309a9.24 9.24 0 0 0 9.24-9.24V87.87a9.239 9.239 0 0 0-9.24-9.24zm-9.24 325.157L324.414 256.003l148.423-129.711c3.843-3.358 4.234-9.196.877-13.038-3.36-3.843-9.196-4.236-13.038-.877L256 291.247 140.001 189.872a9.24 9.24 0 0 0-12.161 13.915l59.751 52.218L18.48 403.793V108.217l80.559 70.401a9.21 9.21 0 0 0 6.078 2.283 9.24 9.24 0 0 0 6.084-16.198L33.856 97.11H493.52v306.677z" fill="#fb9972"/></svg>