<svg xmlns="http://www.w3.org/2000/svg" width="512" height="512" viewBox="0 0 754.537 754.536"><g fill="#fb9972"><path d="M598.116 5.361c3.537-5.453 10.833-7 16.262-3.463 5.453 3.537 7.001 10.809 3.464 16.262L141.069 749.174c-3.537 5.454-10.808 7.001-16.262 3.464-5.453-3.537-7-10.833-3.463-16.262L598.116 5.361zM94.863 165.081c0 32.572 13.191 62.05 34.488 83.347l.049.049c21.297 21.297 50.775 34.488 83.347 34.488 32.573 0 62.05-13.215 83.348-34.513l.614-.565c20.954-21.248 33.924-50.504 33.924-82.807 0-32.597-13.191-62.075-34.489-83.348v-.024l-.024.024c-21.322-21.322-50.799-34.538-83.372-34.538-32.572 0-62.05 13.191-83.347 34.489l-.049.049c-21.298 21.298-34.489 50.775-34.489 83.349zm17.907 100.025l-.024-.024-.024-.024c-25.597-25.622-41.441-60.995-41.441-99.978s15.844-74.333 41.44-99.953v-.024l.024-.025.024-.024c25.621-25.596 60.969-41.44 99.978-41.44 39.058 0 74.455 15.844 100.027 41.416v.049c25.621 25.621 41.465 60.994 41.465 100.002 0 38.64-15.549 73.743-40.777 99.29l-.664.737c-25.572 25.572-60.969 41.416-100.026 41.416-39.008.022-74.356-15.821-100.002-41.418z"/><path d="M212.773 82.567c6.509 0 11.791 5.281 11.791 11.791 0 6.509-5.306 11.791-11.791 11.791-16.311 0-31.05 6.583-41.686 17.195l-.024.049.024.024c-10.637 10.637-17.269 25.4-17.269 41.662 0 6.509-5.281 11.791-11.791 11.791-6.509 0-11.791-5.281-11.791-11.791 0-22.796 9.261-43.43 24.172-58.341l.024.024c14.96-14.957 35.594-24.195 58.341-24.195zm211.131 507.036c0 32.572 13.191 62.074 34.489 83.348l.023.023.024-.023c21.322 21.322 50.8 34.538 83.348 34.538 32.572 0 62.074-13.191 83.348-34.488l.05-.05c21.271-21.297 34.464-50.774 34.464-83.347 0-32.573-13.191-62.075-34.464-83.349l-.024-.023-.025.023c-21.32-21.322-50.799-34.513-83.347-34.513-32.598 0-62.075 13.189-83.348 34.464l-.049.049c-21.298 21.298-34.489 50.801-34.489 83.348zm17.884 100.027c-25.621-25.621-41.465-60.994-41.465-100.002 0-38.984 15.844-74.332 41.415-99.953l.024-.023.024-.024.024-.024c25.62-25.62 60.969-41.439 99.978-41.439 39.059 0 74.455 15.844 100.026 41.439l-.024.024c25.621 25.62 41.465 60.993 41.465 100.002 0 39.008-15.844 74.356-41.439 99.979l-.024.023-.023.024-.024.023c-25.621 25.598-60.97 41.44-99.978 41.44-39.059 0-74.455-15.868-100.053-41.44l.074-.049z"/><path d="M541.814 507.091c6.51 0 11.791 5.281 11.791 11.791s-5.281 11.791-11.791 11.791c-16.312 0-31.05 6.583-41.688 17.22l-.023.024.023.024c-10.66 10.66-17.269 25.399-17.269 41.661 0 6.51-5.307 11.791-11.791 11.791-6.51 0-11.791-5.281-11.791-11.791 0-22.796 9.261-43.431 24.172-58.341l.024.024c14.962-14.958 35.596-24.194 58.343-24.194z"/></g></svg>