<svg xmlns="http://www.w3.org/2000/svg" viewBox="0 0 511.998 511.998" width="512" height="512"><path d="M327.334 460.618C212.717 385.892 100.318 269.427 33.996 156.673l-5.698-9.686c-10.755-18.285-12.352-40.914-4.275-60.53l18.273-44.372L55.603 62a9.463 9.463 0 0 0 7.883 4.21 9.42 9.42 0 0 0 5.253-1.597c4.348-2.907 5.518-8.787 2.611-13.135L54.269 25.913l10.927-5.177c8.489-4.024 18.823-1.163 24.036 6.657l61.687 92.521c4.357 6.535 4.227 15.23-.323 21.633l-9.824 13.817-51.908-77.678c-2.907-4.348-8.788-5.518-13.135-2.612-4.348 2.905-5.518 8.787-2.612 13.135l55.911 83.67-17.316 24.351a9.467 9.467 0 0 0-.519 10.163c7.216 12.717 15.989 26.107 26.073 39.799 3.104 4.211 9.031 5.11 13.241 2.008a9.47 9.47 0 0 0 2.009-13.241c-8.27-11.227-15.598-22.208-21.837-32.721l35.353-49.719c9.068-12.76 9.327-30.084.644-43.11l-61.687-92.522C94.602 1.303 74.01-4.399 57.084 3.62L36.25 13.493a9.469 9.469 0 0 0-4.701 4.952L6.513 79.244c-10.322 25.064-8.281 53.978 5.461 77.344l5.698 9.686c67.713 115.119 182.406 233.984 299.32 310.209a9.431 9.431 0 0 0 5.163 1.538 9.46 9.46 0 0 0 7.941-4.299c2.856-4.381 1.618-10.248-2.762-13.104z" fill="#fb9972"/><path d="M495.115 406.991l-92.523-61.671c-13.026-8.682-30.348-8.42-43.105.646l-49.723 35.355c-31.491-18.688-66.579-46.775-99.444-79.661-14.376-14.375-27.922-29.257-40.265-44.235a9.472 9.472 0 0 0-13.331-1.285c-4.037 3.326-4.611 9.294-1.287 13.331 12.727 15.443 26.687 30.779 41.486 45.579 35.851 35.875 74.449 66.332 108.685 85.758a9.471 9.471 0 0 0 10.163-.52l22.872-16.264 131.076 85.761-44.16 18.185c-19.626 8.082-42.265 6.479-60.554-4.288l-9.678-5.697c-4.509-2.653-10.312-1.15-12.965 3.357-2.654 4.506-1.15 10.312 3.356 12.965l9.678 5.697c13.509 7.952 28.87 11.992 44.272 11.991 11.246 0 22.518-2.155 33.1-6.513l60.781-25.03a9.47 9.47 0 0 0 4.953-4.703l9.878-20.857c8.021-16.923 2.316-37.516-13.265-47.901zm-3.846 39.796l-5.229 11.042-130.818-85.59 15.236-10.835c6.403-4.55 15.097-4.678 21.629-.324l92.522 61.671c7.819 5.211 10.683 15.545 6.66 24.036z" fill="#fb9972"/></svg>