<svg xmlns="http://www.w3.org/2000/svg" viewBox="0 0 512 512"><path d="M400.262 170.914c-3.389-3.443-8.929-3.486-12.368-.098a8.746 8.746 0 0 0-.098 12.369c16.988 17.26 27.145 39.505 29.148 63.378h-22.017a8.746 8.746 0 0 0-8.747 8.747 8.746 8.746 0 0 0 8.747 8.747h22.406v19.697H211.681v-19.697h154.091a8.746 8.746 0 0 0 8.747-8.747 8.746 8.746 0 0 0-8.747-8.747H212.056c4.454-52.62 48.699-94.079 102.452-94.079 18.661 0 36.933 5.048 52.84 14.596a8.75 8.75 0 0 0 12.002-2.998 8.75 8.75 0 0 0-2.997-12.002 119.607 119.607 0 0 0-28.304-12.32v-28.288c0-14.526-10.802-26.57-24.795-28.537V56.708C323.254 25.44 297.814 0 266.547 0H133.88c-31.27 0-56.708 25.44-56.708 56.708v446.544c0 4.831 3.915 8.747 8.747 8.747s8.747-3.916 8.747-8.747V56.708c0-21.624 17.592-39.214 39.214-39.214h132.666c21.623 0 39.213 17.591 39.213 39.214v26.227c-13.992 1.968-24.794 14.012-24.794 28.537v28.282c-50.076 14.557-86.779 60.85-86.779 115.558v37.191a8.746 8.746 0 0 0 8.747 8.747h223.148a8.746 8.746 0 0 0 8.747-8.747v-37.191c0-31.78-12.275-61.753-34.566-84.398zM298.46 111.472c0-6.248 5.083-11.33 11.33-11.33h9.434c6.247 0 11.33 5.083 11.33 11.33v24.592a120.832 120.832 0 0 0-16.048-1.073c-5.441 0-10.795.37-16.047 1.073v-24.592zm-76.671 356.554a8.746 8.746 0 0 0-8.747 8.747v26.48c0 4.831 3.915 8.747 8.747 8.747s8.747-3.916 8.747-8.747v-26.48a8.746 8.746 0 0 0-8.747-8.747z" fill="#fb9972"/><path d="M221.789 312.913a8.746 8.746 0 0 0-8.747 8.747v127.123c0 4.831 3.915 8.747 8.747 8.747s8.747-3.916 8.747-8.747V321.66a8.746 8.746 0 0 0-8.747-8.747zm46.359 67.642a8.746 8.746 0 0 0-8.747 8.747v113.951c0 4.831 3.915 8.747 8.747 8.747s8.747-3.916 8.747-8.747V389.302a8.746 8.746 0 0 0-8.747-8.747zm0-67.642a8.746 8.746 0 0 0-8.747 8.747v39.653c0 4.831 3.915 8.747 8.747 8.747s8.747-3.916 8.747-8.747V321.66a8.746 8.746 0 0 0-8.747-8.747zm46.359 128.288a8.746 8.746 0 0 0-8.747 8.747v53.305c0 4.831 3.915 8.747 8.747 8.747s8.747-3.916 8.747-8.747v-53.305a8.746 8.746 0 0 0-8.747-8.747zm0-128.288a8.746 8.746 0 0 0-8.747 8.747v99.133c0 4.831 3.915 8.747 8.747 8.747s8.747-3.916 8.747-8.747V321.66a8.746 8.746 0 0 0-8.747-8.747zm46.359 85.136a8.746 8.746 0 0 0-8.747 8.747v96.457c0 4.831 3.915 8.747 8.747 8.747s8.747-3.916 8.747-8.747v-96.457a8.746 8.746 0 0 0-8.747-8.747zm0-85.136a8.746 8.746 0 0 0-8.747 8.747v58.313c0 4.831 3.915 8.747 8.747 8.747s8.747-3.916 8.747-8.747V321.66a8.746 8.746 0 0 0-8.747-8.747zm46.359 156.279a8.746 8.746 0 0 0-8.747 8.747v25.314c0 4.831 3.915 8.747 8.747 8.747s8.747-3.916 8.747-8.747v-25.314a8.747 8.747 0 0 0-8.747-8.747zm0-156.279a8.746 8.746 0 0 0-8.747 8.747v128.289c0 4.831 3.915 8.747 8.747 8.747s8.747-3.916 8.747-8.747V321.66a8.746 8.746 0 0 0-8.747-8.747z" fill="#fb9972"/></svg>