<svg xmlns="http://www.w3.org/2000/svg" viewBox="0 0 433.456 433.456" width="512" height="512"><g fill="#fb9972"><path d="M216.572 134.728c-66.4 0-128 35.2-161.6 92-2.4 4-.8 8.8 2.8 10.8 1.2.8 2.8 1.2 4 1.2 2.8 0 5.6-1.6 6.8-4 30.8-52 87.2-84 148-84 60 0 116.8 32.4 148 84 2.4 3.6 7.2 5.2 10.8 2.8 3.6-2.4 5.2-7.2 2.8-10.8-34-56.8-96-92-161.6-92z"/><path d="M431.772 169.928c-49.6-69.6-130-111.2-215.2-111.2s-165.6 41.6-215.2 111.2c-2.4 3.6-1.6 8.4 2 11.2 3.6 2.4 8.4 1.6 11.2-2 46.4-65.2 122-104.4 202-104.4s155.6 39.2 202.4 104.8c1.6 2 4 3.2 6.4 3.2 1.6 0 3.2-.4 4.8-1.6 3.6-2.4 4.4-7.6 1.6-11.2zm-215.2 40.8c-46.4 0-88.8 29.6-105.2 73.2-1.6 4 .4 8.8 4.8 10.4.8.4 2 .4 2.8.4 3.2 0 6.4-2 7.6-5.2 14-37.6 50-62.8 90-62.8s76 25.2 90 62.8c1.6 4 6 6.4 10.4 4.8 4-1.6 6.4-6 4.8-10.4-16.4-43.6-58.8-73.2-105.2-73.2z"/><path d="M215.772 278.728c-26.4 0-48 21.6-48 48s21.6 48 48 48 48-21.6 48-48-21.6-48-48-48zm0 80c-17.6 0-32-14.4-32-32s14.4-32 32-32 32 14.4 32 32-14.4 32-32 32z"/></g></svg>